<svg width="960" height="640" viewBox="0 0 960 640" fill="none" xmlns="http://www.w3.org/2000/svg">
<path d="M824.307 472.424C814.347 472.424 806.262 480.498 806.262 490.464C806.262 500.419 814.347 508.504 824.307 508.504C834.267 508.504 842.34 500.419 842.34 490.465C842.34 480.498 834.267 472.424 824.307 472.424ZM824.307 504.634C822.446 504.636 820.602 504.271 818.882 503.559C817.163 502.847 815.6 501.804 814.284 500.488C812.968 499.171 811.924 497.609 811.213 495.889C810.501 494.169 810.136 492.325 810.138 490.464C810.138 482.635 816.468 476.305 824.307 476.305C832.136 476.305 838.474 482.635 838.474 490.464C838.474 498.296 832.136 504.633 824.307 504.633V504.634ZM831.72 486.283C831.719 485.479 831.561 484.684 831.253 483.942C830.945 483.2 830.494 482.526 829.925 481.959C829.357 481.391 828.682 480.941 827.94 480.634C827.197 480.328 826.402 480.17 825.598 480.171H816.906V500.763H820.77V492.4H823.543L827.447 500.763H831.72L827.644 492.043C828.835 491.62 829.865 490.84 830.595 489.809C831.325 488.778 831.717 487.546 831.72 486.283ZM825.598 488.534H820.77V484.028H825.598C826.84 484.028 827.856 485.037 827.856 486.283C827.854 486.88 827.615 487.453 827.192 487.875C826.769 488.297 826.196 488.534 825.598 488.534Z" fill="white"/>
<path d="M957.722 199.628C944.588 107.957 864.457 79.4396 816.287 70.5102L857.494 43.3998C857.494 43.3998 642.221 -3.32146 363.775 84.618C109.379 164.959 -19.0052 291.035 2.27859 439.619C15.4123 531.298 95.5408 559.81 143.705 568.735L102.501 595.851C102.501 595.851 317.774 642.569 596.232 554.645C850.622 474.299 979 348.228 957.722 199.628Z" fill="#A2AAAD"/>
<path d="M944.932 203.658C927.571 82.4577 777.871 80.4169 777.871 80.4169L821.086 51.9836C821.086 51.9836 616.696 18.8073 365.697 98.0772C144.061 168.067 -6.7277 283.342 15.0744 435.585C32.4352 556.805 182.135 558.837 182.135 558.837L138.925 587.253C138.925 587.253 343.304 620.436 594.311 541.172C815.947 471.172 966.74 355.91 944.93 203.658H944.932Z" fill="white"/>
<path d="M921.687 211.005C899.517 56.2759 659.759 89.0433 535.898 128.157C469.558 149.104 426.16 170.367 426.16 170.367C650.848 89.9705 808.355 147.361 808.355 147.361C733.8 142.128 663.703 166.295 663.703 166.295C663.703 166.295 739.014 181.466 749.016 251.356C762.239 343.632 683.693 449.244 441.594 525.7C309.604 567.368 198.547 573.98 198.547 573.98C198.547 573.98 355.159 597.025 591.614 522.349C810.441 453.246 940.399 341.728 921.687 211.005Z" fill="#CD001A"/>
<path d="M480.294 409.457C547.462 388.243 604.528 356.604 635.199 326.42C652.156 309.727 661.079 293.485 659.101 279.695C658.341 274.434 656.002 269.82 652.331 265.824C629.006 240.411 550.326 240.76 460.208 269.215C355.912 302.161 275.85 360.245 281.394 398.97C286.944 437.694 375.993 442.392 480.294 409.457Z" fill="#CD001A"/>
<path d="M368.393 116.889C149.56 186.003 19.6071 297.523 38.3329 428.241C60.4898 582.964 300.251 550.213 424.109 511.088C490.451 490.13 533.847 468.873 533.847 468.873C309.155 549.27 151.646 491.875 151.646 491.875C226.207 497.112 296.308 472.954 296.308 472.954C296.308 472.954 220.996 457.774 210.995 387.88C197.778 295.61 276.316 189.998 518.419 113.55C650.408 71.8707 761.462 65.2564 761.462 65.2564C761.462 65.2564 604.856 42.2205 368.393 116.889Z" fill="#010101"/>
<path d="M446.086 211.222C362.979 237.463 319.504 270.686 304.489 305.499L274.291 375.451C274.291 375.451 310.943 309.753 459.303 262.906C571.172 227.574 639.458 236.487 652.332 265.823C656.002 269.819 658.341 274.433 659.101 279.693C661.08 293.484 652.155 309.726 635.2 326.418C607.176 365.829 553.671 408.215 506.725 436.844C544.215 425.008 712.479 345.173 700.271 259.939C688.936 180.847 590.615 165.577 446.086 211.222Z" fill="#010101"/>
<path d="M463.5 313.201C419.952 326.958 386.391 350.205 388.533 365.145C390.667 380.079 427.696 381.053 471.242 367.3C514.784 353.544 548.346 330.294 546.211 315.353C544.065 300.412 507.032 299.446 463.5 313.201Z" fill="#010101"/>
</svg>
