<?xml version="1.0" encoding="utf-8"?>
<svg xmlns="http://www.w3.org/2000/svg" xml:space="preserve" id="Layer_1" width="500" height="40" x="0" y="0">
	 viewBox="0 0 500 40" style="enable-background:new 0 0 500 40;" xml:space="preserve"&gt;
<style type="text/css">
	.st0{fill:none;}
	.st1{fill:#FFFFFF;}
	.st2{fill:#CC0000;}
</style>
<g>
	<g>
		<g>
			<polygon class="st0" points="74.9,10.4 73.1,17 76.9,17 77.9,16.2 79.4,10.9 79,10.4    "/>
			<polygon class="st0" points="47.2,22.6 48.1,14.5 44.6,22.6    "/>
			<polygon class="st0" points="200.4,22.6 201.3,14.5 197.9,22.6    "/>
			<polygon class="st0" points="103,10.9 101.9,11.8 97.4,28.5 97.8,29.1 100.8,29.1 102,28.2 106.4,11.5 106,10.9    "/>
			<path d="M31.2,23.8h-10l-1.3,4.7l-1.1,0.9h-2.6l-0.4-0.6l4.5-17l1.1-0.9h2.6l0.4,0.5l-1.3,4.8h10L35.4,8l-3.9-5.3H17.8l-6.2,4.9     L5,32l3.9,5.3h13.8l6.3-4.9L31.2,23.8z M22.3,36.4h-13L6,31.8l6.3-23.6l5.8-4.5h13l3.3,4.5l-1.9,7.1h-8.1l1.1-4.1L24.6,10h-3.4     l-1.6,1.3l-4.7,17.6l0.9,1.3h3.4l1.6-1.2l1.2-4.4H30l-1.9,7.2L22.3,36.4z"/>
			<polygon class="st1" points="21.9,24.6 20.7,29 19.2,30.2 15.8,30.2 14.9,28.9 19.6,11.3 21.2,10 24.6,10 25.5,11.2 24.4,15.3      32.5,15.3 34.4,8.2 31.1,3.6 18.1,3.6 12.3,8.2 6,31.8 9.3,36.4 22.3,36.4 28.1,31.8 30,24.6    "/>
			<path d="M48,23.5l1.7-14.9l-6.4,14.9H48z M47.2,22.6h-2.5l3.5-8.1L47.2,22.6z"/>
			<path d="M44.6,2.7L28.8,37.3h9.6l2.8-6.5h5.1l-0.7,6.5h10l2.6-34.5C58.2,2.7,44.6,2.7,44.6,2.7z M54.7,36.4h-8.2l0.7-6.5h-6.6     l-2.8,6.5h-7.6l15-32.7h12.1L54.7,36.4z"/>
			<path class="st1" d="M45.2,3.6l-15,32.7h7.6l2.8-6.5h6.6l-0.7,6.5h8.2l2.5-32.7C57.2,3.6,45.2,3.6,45.2,3.6z M48,23.5h-4.7     l6.4-14.9L48,23.5z"/>
			<path d="M87,19.7l3.1-11.8l-3.8-5.2H66.9l-9.2,34.5h10L71,24.7h1.7L73,37.3h10.1l-0.6-14L87,19.7z M73.9,36.4l-0.3-12.5h-3.2     L67,36.4h-8.1l8.8-32.7h18.3l3.3,4.5l-3,11l-4.6,3.7l0.6,13.6H73.9z"/>
			<path d="M74.2,9.5l-2.2,8.4h5.3l1.5-1.1l1.6-6.1l-0.9-1.1L74.2,9.5L74.2,9.5z M77.9,16.2l-1,0.8h-3.8l1.8-6.6H79l0.3,0.4     L77.9,16.2z"/>
			<path class="st1" d="M86.2,19.1l3-11l-3.3-4.5H67.6l-8.8,32.7H67l3.4-12.5h3.2l0.3,12.5h8.3l-0.6-13.6L86.2,19.1z M78.7,16.8     l-1.5,1.1h-5.3l2.2-8.4h5.3l0.9,1.1L78.7,16.8z"/>
			<path d="M113.4,2.7H99.3L93,7.7L86.5,32l3.9,5.3h14.1l6.3-4.9L117.3,8L113.4,2.7z M110,31.8l-5.8,4.6H90.8l-3.3-4.6l6.3-23.6     l5.8-4.5H113l3.3,4.5L110,31.8z"/>
			<path d="M102.7,10l-1.6,1.3l-4.7,17.5l0.9,1.3h3.7l1.7-1.3l4.7-17.5l-1-1.3C106.4,10,102.7,10,102.7,10z M102,28.2l-1.2,0.9h-2.9     l-0.4-0.6l4.5-16.7l1.1-0.9h3l0.4,0.6L102,28.2z"/>
			<path class="st1" d="M113,3.6H99.6l-5.8,4.5l-6.3,23.6l3.3,4.6h13.4l5.8-4.6l6.3-23.6L113,3.6z M102.7,28.7l-1.7,1.3h-3.7     l-0.9-1.3l4.7-17.5l1.6-1.3h3.7l1,1.3L102.7,28.7z"/>
			<path d="M125.5,28.6l6.9-25.9h-10l-9.2,34.5H132l2.3-8.6H125.5z M131.3,36.4h-16.9l8.8-32.7h8.1l-6.9,25.9h8.8L131.3,36.4z"/>
			<polygon class="st1" points="124.3,29.5 131.3,3.6 123.2,3.6 114.4,36.4 131.3,36.4 133.2,29.5    "/>
			<path d="M159.6,10.4l2.1-7.7h-18.5l-2.1,7.7h4.3l-5.1,19.2H136l-2.1,7.7h18.5l2.1-7.7h-4.3l5.1-19.2     C155.3,10.4,159.6,10.4,159.6,10.4z M149,30.5h4.3l-1.6,5.9h-16.7l1.6-5.9h4.3l5.6-21h-4.3l1.6-5.9h16.7L159,9.5h-4.3L149,30.5z"/>
			<polygon class="st1" points="160.5,3.6 143.8,3.6 142.3,9.5 146.6,9.5 141,30.5 136.6,30.5 135.1,36.4 151.8,36.4 153.3,30.5      149,30.5 154.6,9.5 159,9.5    "/>
			<path d="M180.1,2.7l-3.9,14.6l-2.5-14.6h-8.9l-9.2,34.5h9l4-14.8l2.4,14.8h9l9.2-34.5C189.2,2.7,180.1,2.7,180.1,2.7z      M179.2,36.4h-7.5l-2.9-18.2l-4.9,18.2h-7.2l8.8-32.7h7.4l3.1,17.8l4.8-17.8h7.2L179.2,36.4z"/>
			<polygon class="st1" points="180.8,3.6 176,21.5 173,3.6 165.5,3.6 156.7,36.4 163.9,36.4 168.8,18.2 171.7,36.4 179.2,36.4      188,3.6    "/>
			<path d="M197.8,2.7L182,37.3h9.6l2.8-6.5h5.1l-0.7,6.5h10l2.6-34.5C211.4,2.7,197.8,2.7,197.8,2.7z M208,36.4h-8.2l0.7-6.5h-6.6     l-2.8,6.5h-7.6l15-32.7h12.1L208,36.4z"/>
			<path d="M201.2,23.5l1.7-14.9l-6.4,14.9H201.2z M200.4,22.6h-2.5l3.5-8.1L200.4,22.6z"/>
			<path class="st1" d="M198.4,3.6l-15,32.7h7.6l2.8-6.5h6.6l-0.7,6.5h8.2l2.5-32.7C210.5,3.6,198.4,3.6,198.4,3.6z M201.2,23.5     h-4.7l6.4-14.9L201.2,23.5z"/>
		</g>
		<g>
			<g>
				<polygon class="st0" points="297.5,10.4 295.7,17 299.6,17 300.6,16.2 302,10.9 301.7,10.4     "/>
				<polygon class="st0" points="325.3,10.4 323.5,17 327.3,17 328.3,16.2 329.8,10.9 329.4,10.4     "/>
				<path d="M247.9,2.7l-3.5,13h-4.5l3.5-13h-10l-9.2,34.5h10l3.2-12h4.5l-3.2,12h9.9l9.2-34.5C257.8,2.7,247.9,2.7,247.9,2.7z       M247.9,36.4h-8.1l3.2-12h-6.3l-3.2,12h-8.1l8.8-32.7h8.1l-3.5,13h6.3l3.5-13h8.1L247.9,36.4z"/>
				<polygon class="st1" points="248.6,3.6 245.1,16.6 238.8,16.6 242.2,3.6 234.1,3.6 225.4,36.4 233.5,36.4 236.7,24.3 243,24.3       239.8,36.4 247.9,36.4 256.6,3.6     "/>
				<path d="M275.7,2.7L269,28l-1.1,0.9h-2.6l-0.4-0.6l6.9-25.6h-10L253.9,32l3.9,5.3h13.8l6.2-4.9l7.9-29.6      C285.7,2.7,275.7,2.7,275.7,2.7z M277,31.8l-5.8,4.5h-13l-3.3-4.5l7.5-28.2h8.1l-6.7,24.8l0.9,1.3h3.3l1.6-1.3l6.7-24.8h8.1      L277,31.8z"/>
				<polygon class="st1" points="276.4,3.6 269.7,28.5 268.1,29.8 264.8,29.8 263.9,28.5 270.5,3.6 262.4,3.6 254.9,31.8       258.2,36.4 271.2,36.4 277,31.8 284.5,3.6     "/>
				<path d="M296.8,9.5l-2.2,8.4h5.3l1.5-1.1l1.6-6.1l-0.9-1.1L296.8,9.5L296.8,9.5z M300.6,16.2l-1,0.8h-3.8l1.8-6.6h4.2l0.3,0.4      L300.6,16.2z"/>
				<path d="M309.6,19.7l3.1-11.8L309,2.7h-19.4l-9.2,34.5h10l3.4-12.5h1.7l0.3,12.5h10.1l-0.6-14L309.6,19.7z M296.6,36.4      l-0.3-12.5H293l-3.4,12.5h-8.1l8.8-32.7h18.3l3.3,4.5l-3,11l-4.6,3.7l0.6,13.6H296.6z"/>
				<path class="st1" d="M308.8,19.1l3-11l-3.3-4.5h-18.3l-8.8,32.7h8.1l3.4-12.5h3.2l0.3,12.5h8.3l-0.6-13.6L308.8,19.1z       M301.4,16.8l-1.5,1.1h-5.3l2.2-8.4h5.3l0.9,1.1L301.4,16.8z"/>
				<path d="M324.6,9.5l-2.2,8.4h5.3l1.5-1.1l1.6-6.1l-0.9-1.1L324.6,9.5L324.6,9.5z M328.3,16.2l-1,0.8h-3.8l1.8-6.6h4.2l0.3,0.4      L328.3,16.2z"/>
				<path d="M337.4,19.7l3.1-11.8l-3.8-5.2h-19.4l-9.2,34.5h10l3.4-12.5h1.7l0.3,12.5h10.1l-0.6-14L337.4,19.7z M324.3,36.4      L324,23.8h-3.2l-3.4,12.5h-8.1L318,3.6h18.3l3.3,4.5l-3,11l-4.6,3.7l0.6,13.6H324.3z"/>
				<path class="st1" d="M336.6,19.1l3-11l-3.3-4.5H318l-8.8,32.7h8.1l3.4-12.5h3.2l0.3,12.5h8.3L332,22.8L336.6,19.1z M329.1,16.8      l-1.5,1.1h-5.3l2.2-8.4h5.3l0.9,1.1L329.1,16.8z"/>
				<path d="M344.1,2.7l-2.1,7.7h4.3l-5.1,19.2h-4.3l-2.1,7.7h18.5l2.1-7.7h-4.3l5.1-19.2h4.3l2.1-7.7L344.1,2.7L344.1,2.7z       M359.9,9.5h-4.3l-5.6,21h4.3l-1.6,5.9H336l1.6-5.9h4.3l5.6-21h-4.3l1.6-5.9h16.7L359.9,9.5z"/>
				<polygon class="st1" points="344.8,3.6 343.2,9.5 347.5,9.5 341.9,30.5 337.6,30.5 336,36.4 352.7,36.4 354.3,30.5 350,30.5       355.6,9.5 359.9,9.5 361.5,3.6     "/>
			</g>
			<g>
				<g>
					<g>
						<polygon class="st0" points="400.7,22.6 401.6,14.5 398.2,22.6       "/>
						<path d="M398.1,2.7l-15.8,34.5h9.6l2.8-6.5h5.1l-0.7,6.5h10l2.6-34.5C411.7,2.7,398.1,2.7,398.1,2.7z M408.3,36.4h-8.2        l0.7-6.5h-6.6l-2.8,6.5h-7.6l15-32.7h12.1L408.3,36.4z"/>
						<path d="M401.5,23.5l1.7-14.9l-6.4,14.9H401.5z M400.7,22.6h-2.5l3.5-8.1L400.7,22.6z"/>
						<path class="st1" d="M398.7,3.6l-15,32.7h7.6l2.8-6.5h6.6l-0.7,6.5h8.2l2.5-32.7C410.8,3.6,398.7,3.6,398.7,3.6z M401.5,23.5        h-4.7l6.4-14.9L401.5,23.5z"/>
						<path d="M435.8,2.7l-3.9,14.6l-2.5-14.6h-8.9l-9.2,34.5h9l4-14.8l2.4,14.8h9l9.2-34.5C444.8,2.7,435.8,2.7,435.8,2.7z         M434.9,36.4h-7.5l-2.9-18.2l-4.9,18.2h-7.2l8.8-32.7h7.4l3.1,17.8l4.8-17.8h7.2L434.9,36.4z"/>
						<polygon class="st1" points="436.5,3.6 431.7,21.5 428.6,3.6 421.2,3.6 412.4,36.4 419.6,36.4 424.4,18.2 427.3,36.4         434.9,36.4 443.6,3.6       "/>
						<path d="M462.7,23.9l2.3-8.5h-9.4l1.1-4.2h10.5l2.3-8.5h-20.4l-9.2,34.5h20.5l2.3-8.5h-10.6l1.3-4.9L462.7,23.9L462.7,23.9z         M450.7,29.7h10.6l-1.8,6.7h-18.7l8.8-32.7h18.6l-1.8,6.7h-10.5l-1.6,6h9.4L462,23h-9.4L450.7,29.7z"/>
						<polygon class="st1" points="463.8,16.3 454.3,16.3 455.9,10.3 466.4,10.3 468.2,3.6 449.6,3.6 440.9,36.4 459.5,36.4         461.3,29.7 450.7,29.7 452.5,23 462,23       "/>
						<path d="M493.1,14.9l1.9-7.1l-3.7-5.1h-13.9l-6.1,4.8l-3.3,12.3l3.3,4.4h9.4l0.1,0.1l-1.1,4.1l-0.8,0.7h-3.2l-0.2-0.3l1-3.7        h-10l-1.9,7.1l3.8,5.1h14.1l6.1-4.8l3.3-12.4l-3.3-4.4h-9.4l-0.1-0.1l1.1-4l0.8-0.7h2.9l0.3,0.4l-1,3.7        C483.2,14.9,493.1,14.9,493.1,14.9z M480.7,9.9l-1.3,1l-1.3,4.7l0.6,0.8h9.4l2.8,3.7l-3.1,11.7l-5.7,4.5h-13.4l-3.2-4.4l1.6-6        h8.1l-0.8,3l0.8,1h3.9l1.3-1l1.3-4.8l-0.6-0.8h-9.4l-2.8-3.7L472,8.1l5.7-4.5h13.2L494,8l-1.6,6h-8.1l0.8-3l-0.8-1.1        L480.7,9.9L480.7,9.9z"/>
						<polygon class="st1" points="485.2,11 484.3,14 492.4,14 494,8 490.8,3.6 477.6,3.6 472,8.1 468.9,19.7 471.6,23.4         481.1,23.4 481.7,24.2 480.4,29 479.1,30.1 475.1,30.1 474.4,29 475.2,26 467.1,26 465.4,32 468.7,36.4 482.1,36.4         487.7,31.9 490.8,20.2 488.1,16.5 478.7,16.5 478.1,15.7 479.3,10.9 480.7,9.9 484.4,9.9       "/>
					</g>
				</g>
				<g>
					<path d="M386.7,16.2l2.2-8.2l-3.9-5.3h-13.8L365,7.7L358.5,32l3.9,5.3h13.8l6.3-4.9l2.3-8.6h-10l-1.3,4.7l-1.1,0.9h-2.6       l-0.4-0.6l4.5-17l1.1-0.9h2.6l0.4,0.5l-1.3,4.8L386.7,16.2L386.7,16.2z M372.7,30.2l1.6-1.2l1.2-4.4h8.1l-1.9,7.2l-5.8,4.5h-13       l-3.3-4.5l0.8-2.9h8.1l0.9,1.3L372.7,30.2L372.7,30.2z M378.1,10h-3.4l-1.6,1.3H373h-8l0.8-3.1l5.8-4.5h13l3.3,4.5l-1.9,7.1       h-8.1l1.1-4.1L378.1,10z"/>
					<path class="st2" d="M370.7,20.5h-8.1l-2.1,7.9h8.1L370.7,20.5z M366.9,26.1h-3.6l1-3.6h3.6L366.9,26.1z"/>
					<polygon points="363.3,26.1 366.9,26.1 367.9,22.5 364.3,22.5      "/>
					<path class="st2" d="M364.9,11.8l-2.2,8.1h8.1l2.2-8.1C373,11.8,364.9,11.8,364.9,11.8z M366.5,14.1h3.6l-1,3.6h-3.6       L366.5,14.1z"/>
					<polygon points="370.1,14.1 366.5,14.1 365.6,17.7 369.2,17.7      "/>
				</g>
				<g>
					<polygon class="st1" points="374.2,29 372.7,30.2 369.3,30.2 368.4,28.9 360.3,28.9 359.5,31.8 362.8,36.4 375.8,36.4        381.6,31.8 383.5,24.6 375.4,24.6      "/>
					<polygon class="st1" points="384.6,3.6 371.6,3.6 365.8,8.2 365,11.3 373,11.3 373.1,11.3 374.7,10 378.1,10 379,11.2        377.9,15.3 386,15.3 387.9,8.2      "/>
				</g>
			</g>
		</g>
	</g>
	<g>
		<g>
			<path class="st1" d="M489.2,34.2h-0.6v-0.3h1.5v0.3h-0.6v2.2h-0.4L489.2,34.2L489.2,34.2z M490.4,33.9h0.6l0.5,2.1l0.5-2.1h0.6     v2.6h-0.4v-2.2l-0.5,2.2h-0.4l-0.5-2.2v2.2h-0.3L490.4,33.9L490.4,33.9z"/>
		</g>
	</g>
</g>
</svg>
