<svg xmlns="http://www.w3.org/2000/svg" viewBox="0 0 1400 842"><path fill-rule="evenodd" d="M0.2 707.2C0.3 633.1 0.5 574.3 0.7 576.5C1.6 587.1 5.4 610.5 7.5 619.0C16.7 655.3 32.1 683.4 56.9 709.2C92.7 746.4 136.8 768.7 204.5 783.8L208.5 784.6L179.2 804.0C163.1 814.6 150.3 823.7 150.7 824.1C151.8 825.1 177.7 829.3 202.0 832.5C233.7 836.5 266.6 839.1 313.5 841.3C316.8 841.5 247.6 841.7 159.8 841.8L0.0 842.0L0.2 707.2ZM436.0 840.9C625.8 832.6 818.2 790.8 993.8 719.6C1036.9 702.2 1092.1 676.1 1125.5 657.4C1268.0 577.8 1355.8 484.6 1387.5 379.5C1392.8 361.9 1397.8 335.9 1399.3 317.5C1399.5 315.3 1399.7 432.4 1399.8 577.8L1400.0 842.0L909.2 841.8C639.3 841.8 426.4 841.4 436.0 840.9ZM325.5 820.9C295.9 820.2 270.1 818.7 245.5 816.4C229.9 815.0 205.5 812.2 203.5 811.6C202.9 811.4 207.7 807.9 214.0 803.8C220.3 799.7 234.4 790.4 245.2 783.3L265.0 770.3L255.7 769.6C232.9 767.9 204.6 762.7 182.7 756.4C97.1 731.5 42.9 681.1 26.0 610.7C20.6 588.4 19.6 578.1 19.5 549.0C19.5 521.4 20.1 514.4 24.5 492.5C53.8 346.7 201.8 219.5 450.5 126.5C598.0 71.4 752.1 37.5 909.5 25.5C952.2 22.3 963.2 21.8 1015.1 21.3C1069.4 20.7 1101.9 21.6 1140.0 24.5C1162.9 26.3 1195.3 30.0 1196.2 30.8C1196.5 31.2 1183.1 40.5 1166.4 51.4C1149.7 62.4 1136.1 71.5 1136.3 71.6C1136.5 71.8 1142.0 72.4 1148.6 73.0C1185.0 76.2 1224.8 86.1 1255.5 99.5C1327.8 131.0 1367.8 181.7 1378.7 255.5C1380.9 270.7 1381.2 314.5 1379.2 329.0C1368.8 402.6 1333.2 467.9 1269.9 529.5C1190.3 606.9 1068.8 674.9 915.0 728.3C748.8 786.0 581.8 816.3 404.5 821.0C364.8 822.0 365.9 822.0 325.5 820.9ZM436.0 796.0C557.9 790.3 685.9 768.5 814.5 731.5C1041.8 666.2 1205.1 574.0 1287.4 464.5C1334.4 402.0 1354.3 332.2 1344.5 264.2C1334.5 194.6 1295.4 146.6 1226.3 119.1C1148.0 88.0 1030.1 86.0 892.2 113.6C820.9 127.8 748.4 150.0 673.0 180.8C650.9 189.8 622.8 202.1 623.3 202.6C623.5 202.8 632.2 200.0 642.7 196.5C781.4 149.8 922.6 132.3 1053.5 145.6C1092.8 149.6 1129.4 156.1 1161.0 164.8L1174.5 168.5L1141.0 169.1C1107.7 169.8 1093.3 170.9 1064.5 175.1C1037.5 179.0 1000.8 187.1 976.1 194.7L967.7 197.2L981.1 201.6C1039.8 220.9 1078.7 259.9 1090.0 310.9C1094.5 331.1 1095.1 360.5 1091.5 382.0C1075.8 476.8 994.0 564.4 853.5 637.1C758.2 686.3 630.7 730.8 505.0 758.5C436.8 773.6 350.9 787.2 303.0 790.6C297.8 791.0 292.9 791.6 292.1 792.0C290.6 792.8 311.4 794.8 332.8 796.0C353.4 797.1 412.8 797.1 436.0 796.0ZM368.0 747.0C472.0 741.3 579.1 717.5 692.3 675.1C724.4 663.0 775.8 641.4 774.7 640.4C774.6 640.2 763.6 643.6 750.4 648.0C588.2 701.4 422.9 714.8 277.5 686.4C262.3 683.5 240.1 678.0 231.5 675.1L225.5 673.1L239.5 673.6C281.9 675.2 346.0 667.7 395.5 655.4C404.6 653.1 427.4 646.7 431.0 645.4C431.8 645.1 427.8 643.4 422.0 641.6C365.7 624.2 325.9 587.4 312.2 540.0C306.9 521.6 304.7 493.4 306.9 472.5C311.3 431.2 327.2 392.7 355.6 354.3C426.6 258.3 575.9 174.0 784.0 112.4C882.1 83.3 1006.5 59.0 1093.8 51.9C1102.2 51.2 1108.5 50.3 1107.8 49.9C1103.9 47.9 1051.6 45.0 1017.5 45.0C860.7 44.9 675.7 77.8 503.0 136.5C279.5 212.5 129.8 318.6 75.8 439.3C65.8 461.8 58.3 487.9 54.8 513.0C53.1 525.3 53.2 561.5 54.9 574.0C62.8 631.1 87.4 672.1 131.3 701.3C171.0 727.6 228.8 743.7 297.5 747.3C312.3 748.1 351.1 747.9 368.0 747.0ZM751.0 588.0C780.5 577.0 824.8 555.0 860.5 533.7C924.3 495.7 972.5 454.5 998.3 416.1C1022.0 380.8 1027.8 347.4 1016.4 312.3C1010.8 295.0 1002.6 281.6 990.0 268.9C968.8 247.5 940.5 235.0 898.0 228.3C881.7 225.7 826.1 225.7 805.0 228.3C751.9 234.7 696.0 247.7 637.7 267.0C539.5 299.7 474.1 342.5 448.7 390.8C444.3 399.2 402.3 495.4 401.3 499.5C401.0 500.6 402.0 499.7 403.5 497.5C412.0 485.2 432.5 464.0 449.0 450.3C507.4 401.9 596.0 359.2 697.1 330.6C758.4 313.2 805.9 305.5 851.5 305.6C882.2 305.6 900.7 308.4 919.5 315.9C932.6 321.2 944.5 330.2 948.5 338.1L950.2 341.4L946.0 337.7C913.4 309.8 823.1 308.1 720.9 333.5C606.7 361.9 499.9 414.4 444.4 469.5C431.1 482.7 422.4 494.2 416.5 506.4C411.1 517.5 409.6 524.0 410.2 534.1C413.1 584.8 513.8 599.1 645.5 567.5C753.3 541.6 856.1 493.3 917.5 439.6L924.4 433.5L919.5 439.9C884.2 485.3 819.1 541.2 752.2 583.5C740.8 590.7 737.6 593.2 741.8 591.5C742.7 591.1 746.9 589.6 751.0 588.0ZM0.1 263.8L0.0 0.0L493.8 0.2C765.3 0.2 979.0 0.7 968.5 1.1C787.9 8.5 606.2 46.0 434.5 111.5C273.7 172.8 153.2 250.0 80.8 338.1C35.6 393.2 9.2 452.4 1.6 516.0C0.4 526.0 0.2 492.7 0.1 263.8ZM1399.0 265.5C1399.0 258.9 1396.2 240.1 1393.4 227.4C1374.8 143.4 1309.5 85.1 1207.3 61.1C1200.1 59.4 1193.5 58.0 1192.5 58.0C1190.9 58.0 1199.5 52.1 1234.5 29.2C1245.9 21.8 1250.0 18.6 1249.0 18.0C1247.3 17.1 1222.1 12.9 1205.0 10.6C1172.3 6.2 1129.6 2.7 1091.5 1.1C1080.2 0.6 1138.6 0.2 1236.2 0.2L1400.0 0.0L1400.0 135.0C1400.0 209.2 1399.8 270.0 1399.5 270.0C1399.2 270.0 1399.0 268.0 1399.0 265.5Z"/></svg>